<mxfile host="Electron" modified="2024-05-03T13:15:34.509Z" agent="Mozilla/5.0 (Macintosh; Intel Mac OS X 10_15_7) AppleWebKit/537.36 (KHTML, like Gecko) draw.io/24.2.5 Chrome/120.0.6099.109 Electron/28.1.0 Safari/537.36" etag="QCx-Ym8Yexo63ofPSiFn" version="24.2.5" type="device">
  <diagram name="Page-1" id="ALbdjOQx2jlAKU2qG_5I">
    <mxGraphModel dx="1434" dy="2023" grid="1" gridSize="10" guides="1" tooltips="1" connect="1" arrows="1" fold="1" page="1" pageScale="1" pageWidth="827" pageHeight="1169" math="0" shadow="0">
      <root>
        <mxCell id="0" />
        <mxCell id="1" parent="0" />
        <mxCell id="M4bq6foVdT7VnZldmVRY-4" value="" style="rounded=0;whiteSpace=wrap;html=1;" vertex="1" parent="1">
          <mxGeometry x="10" y="530" width="870" height="410" as="geometry" />
        </mxCell>
        <mxCell id="M4bq6foVdT7VnZldmVRY-3" value="" style="rounded=0;whiteSpace=wrap;html=1;" vertex="1" parent="1">
          <mxGeometry x="10" y="340" width="870" height="170" as="geometry" />
        </mxCell>
        <mxCell id="M4bq6foVdT7VnZldmVRY-2" value="" style="rounded=0;whiteSpace=wrap;html=1;" vertex="1" parent="1">
          <mxGeometry x="10" y="40" width="870" height="280" as="geometry" />
        </mxCell>
        <mxCell id="rqxmgkJwbArpG70DA_Nf-16" style="edgeStyle=orthogonalEdgeStyle;rounded=0;orthogonalLoop=1;jettySize=auto;html=1;entryX=0;entryY=0.5;entryDx=0;entryDy=0;endArrow=none;endFill=0;" parent="1" source="rqxmgkJwbArpG70DA_Nf-1" target="M4bq6foVdT7VnZldmVRY-8" edge="1">
          <mxGeometry relative="1" as="geometry" />
        </mxCell>
        <mxCell id="rqxmgkJwbArpG70DA_Nf-21" style="edgeStyle=orthogonalEdgeStyle;rounded=0;orthogonalLoop=1;jettySize=auto;html=1;entryX=0;entryY=0.5;entryDx=0;entryDy=0;endArrow=none;endFill=0;" parent="1" source="rqxmgkJwbArpG70DA_Nf-1" target="rqxmgkJwbArpG70DA_Nf-12" edge="1">
          <mxGeometry relative="1" as="geometry" />
        </mxCell>
        <mxCell id="rqxmgkJwbArpG70DA_Nf-1" value="Responsable Accueil&lt;br&gt;(interne)" style="shape=umlActor;verticalLabelPosition=bottom;verticalAlign=top;html=1;outlineConnect=0;" parent="1" vertex="1">
          <mxGeometry x="70" y="150" width="30" height="60" as="geometry" />
        </mxCell>
        <mxCell id="rqxmgkJwbArpG70DA_Nf-17" style="edgeStyle=orthogonalEdgeStyle;rounded=0;orthogonalLoop=1;jettySize=auto;html=1;entryX=0;entryY=0.5;entryDx=0;entryDy=0;endArrow=none;endFill=0;" parent="1" source="rqxmgkJwbArpG70DA_Nf-2" target="rqxmgkJwbArpG70DA_Nf-10" edge="1">
          <mxGeometry relative="1" as="geometry" />
        </mxCell>
        <mxCell id="rqxmgkJwbArpG70DA_Nf-2" value="Responsable Logement&lt;br&gt;(interne)" style="shape=umlActor;verticalLabelPosition=bottom;verticalAlign=top;html=1;outlineConnect=0;" parent="1" vertex="1">
          <mxGeometry x="70" y="390" width="30" height="60" as="geometry" />
        </mxCell>
        <mxCell id="rqxmgkJwbArpG70DA_Nf-18" style="edgeStyle=orthogonalEdgeStyle;rounded=0;orthogonalLoop=1;jettySize=auto;html=1;entryX=1;entryY=0.5;entryDx=0;entryDy=0;endArrow=none;endFill=0;" parent="1" source="rqxmgkJwbArpG70DA_Nf-4" target="rqxmgkJwbArpG70DA_Nf-10" edge="1">
          <mxGeometry relative="1" as="geometry" />
        </mxCell>
        <mxCell id="rqxmgkJwbArpG70DA_Nf-4" value="Fournisseur Logement&lt;br&gt;(externe)" style="shape=umlActor;verticalLabelPosition=bottom;verticalAlign=top;html=1;outlineConnect=0;" parent="1" vertex="1">
          <mxGeometry x="780" y="390" width="30" height="60" as="geometry" />
        </mxCell>
        <mxCell id="rqxmgkJwbArpG70DA_Nf-20" style="edgeStyle=orthogonalEdgeStyle;rounded=0;orthogonalLoop=1;jettySize=auto;html=1;entryX=1;entryY=0.5;entryDx=0;entryDy=0;endArrow=none;endFill=0;" parent="1" source="rqxmgkJwbArpG70DA_Nf-5" target="rqxmgkJwbArpG70DA_Nf-11" edge="1">
          <mxGeometry relative="1" as="geometry" />
        </mxCell>
        <mxCell id="rqxmgkJwbArpG70DA_Nf-5" value="Fournisseur Catering&lt;br&gt;(externe)" style="shape=umlActor;verticalLabelPosition=bottom;verticalAlign=top;html=1;outlineConnect=0;" parent="1" vertex="1">
          <mxGeometry x="780" y="550" width="30" height="60" as="geometry" />
        </mxCell>
        <mxCell id="rqxmgkJwbArpG70DA_Nf-22" style="edgeStyle=orthogonalEdgeStyle;rounded=0;orthogonalLoop=1;jettySize=auto;html=1;entryX=1;entryY=0.5;entryDx=0;entryDy=0;endArrow=none;endFill=0;" parent="1" source="rqxmgkJwbArpG70DA_Nf-6" target="rqxmgkJwbArpG70DA_Nf-14" edge="1">
          <mxGeometry relative="1" as="geometry" />
        </mxCell>
        <mxCell id="rqxmgkJwbArpG70DA_Nf-6" value="Régisseur Technique&lt;br&gt;(interne)" style="shape=umlActor;verticalLabelPosition=bottom;verticalAlign=top;html=1;outlineConnect=0;" parent="1" vertex="1">
          <mxGeometry x="680" y="830" width="30" height="60" as="geometry" />
        </mxCell>
        <mxCell id="rqxmgkJwbArpG70DA_Nf-19" style="edgeStyle=orthogonalEdgeStyle;rounded=0;orthogonalLoop=1;jettySize=auto;html=1;entryX=0;entryY=0.5;entryDx=0;entryDy=0;endArrow=none;endFill=0;" parent="1" source="rqxmgkJwbArpG70DA_Nf-7" target="rqxmgkJwbArpG70DA_Nf-11" edge="1">
          <mxGeometry relative="1" as="geometry" />
        </mxCell>
        <mxCell id="rqxmgkJwbArpG70DA_Nf-24" style="edgeStyle=orthogonalEdgeStyle;rounded=0;orthogonalLoop=1;jettySize=auto;html=1;entryX=0;entryY=0.5;entryDx=0;entryDy=0;endArrow=none;endFill=0;" parent="1" source="rqxmgkJwbArpG70DA_Nf-7" target="rqxmgkJwbArpG70DA_Nf-13" edge="1">
          <mxGeometry relative="1" as="geometry" />
        </mxCell>
        <mxCell id="rqxmgkJwbArpG70DA_Nf-25" style="edgeStyle=orthogonalEdgeStyle;rounded=0;orthogonalLoop=1;jettySize=auto;html=1;entryX=0;entryY=0.5;entryDx=0;entryDy=0;endArrow=none;endFill=0;" parent="1" source="rqxmgkJwbArpG70DA_Nf-7" target="rqxmgkJwbArpG70DA_Nf-14" edge="1">
          <mxGeometry relative="1" as="geometry" />
        </mxCell>
        <mxCell id="rqxmgkJwbArpG70DA_Nf-7" value="Régisseur Général&lt;br&gt;(interne)" style="shape=umlActor;verticalLabelPosition=bottom;verticalAlign=top;html=1;outlineConnect=0;" parent="1" vertex="1">
          <mxGeometry x="70" y="685" width="30" height="60" as="geometry" />
        </mxCell>
        <mxCell id="rqxmgkJwbArpG70DA_Nf-28" style="edgeStyle=orthogonalEdgeStyle;rounded=0;orthogonalLoop=1;jettySize=auto;html=1;entryX=1;entryY=0.5;entryDx=0;entryDy=0;endArrow=none;endFill=0;" parent="1" source="rqxmgkJwbArpG70DA_Nf-8" target="rqxmgkJwbArpG70DA_Nf-9" edge="1">
          <mxGeometry relative="1" as="geometry" />
        </mxCell>
        <mxCell id="M4bq6foVdT7VnZldmVRY-9" style="edgeStyle=orthogonalEdgeStyle;rounded=0;orthogonalLoop=1;jettySize=auto;html=1;entryX=1;entryY=0.5;entryDx=0;entryDy=0;endArrow=none;endFill=0;" edge="1" parent="1" source="rqxmgkJwbArpG70DA_Nf-8" target="M4bq6foVdT7VnZldmVRY-8">
          <mxGeometry relative="1" as="geometry" />
        </mxCell>
        <mxCell id="rqxmgkJwbArpG70DA_Nf-8" value="Responsable Bénévoles&lt;br&gt;(interne)" style="shape=umlActor;verticalLabelPosition=bottom;verticalAlign=top;html=1;outlineConnect=0;" parent="1" vertex="1">
          <mxGeometry x="680" y="150" width="30" height="60" as="geometry" />
        </mxCell>
        <mxCell id="rqxmgkJwbArpG70DA_Nf-9" value="Voiturage des Artistes" style="ellipse;html=1;whiteSpace=wrap;" parent="1" vertex="1">
          <mxGeometry x="294" y="60" width="240" height="60" as="geometry" />
        </mxCell>
        <mxCell id="rqxmgkJwbArpG70DA_Nf-10" value="Coordonner les hébergements" style="ellipse;html=1;whiteSpace=wrap;" parent="1" vertex="1">
          <mxGeometry x="294" y="390" width="240" height="60" as="geometry" />
        </mxCell>
        <mxCell id="rqxmgkJwbArpG70DA_Nf-11" value="Coordonner les services de restauration" style="ellipse;html=1;whiteSpace=wrap;" parent="1" vertex="1">
          <mxGeometry x="294" y="550" width="240" height="60" as="geometry" />
        </mxCell>
        <mxCell id="rqxmgkJwbArpG70DA_Nf-12" value="Gérer les accès VIP" style="ellipse;html=1;whiteSpace=wrap;" parent="1" vertex="1">
          <mxGeometry x="294" y="240" width="240" height="60" as="geometry" />
        </mxCell>
        <mxCell id="rqxmgkJwbArpG70DA_Nf-13" value="Gérer les services personnalisés" style="ellipse;html=1;whiteSpace=wrap;" parent="1" vertex="1">
          <mxGeometry x="294" y="685" width="240" height="60" as="geometry" />
        </mxCell>
        <mxCell id="rqxmgkJwbArpG70DA_Nf-14" value="Gérer les demandes spéciales" style="ellipse;html=1;whiteSpace=wrap;" parent="1" vertex="1">
          <mxGeometry x="294" y="830" width="240" height="60" as="geometry" />
        </mxCell>
        <mxCell id="rqxmgkJwbArpG70DA_Nf-23" style="edgeStyle=orthogonalEdgeStyle;rounded=0;orthogonalLoop=1;jettySize=auto;html=1;entryX=1;entryY=0.5;entryDx=0;entryDy=0;endArrow=none;endFill=0;" parent="1" source="rqxmgkJwbArpG70DA_Nf-15" target="rqxmgkJwbArpG70DA_Nf-13" edge="1">
          <mxGeometry relative="1" as="geometry" />
        </mxCell>
        <mxCell id="rqxmgkJwbArpG70DA_Nf-15" value="Fournisseur Services&lt;br&gt;(externe)" style="shape=umlActor;verticalLabelPosition=bottom;verticalAlign=top;html=1;outlineConnect=0;" parent="1" vertex="1">
          <mxGeometry x="780" y="685" width="30" height="60" as="geometry" />
        </mxCell>
        <mxCell id="M4bq6foVdT7VnZldmVRY-1" value="&lt;b&gt;Accueil et Services aux Artistes&lt;/b&gt;" style="text;html=1;align=center;verticalAlign=middle;whiteSpace=wrap;rounded=0;" vertex="1" parent="1">
          <mxGeometry x="274" y="-20" width="280" height="30" as="geometry" />
        </mxCell>
        <mxCell id="M4bq6foVdT7VnZldmVRY-5" value="&lt;b&gt;Accueil&lt;/b&gt;" style="text;html=1;align=left;verticalAlign=middle;whiteSpace=wrap;rounded=0;" vertex="1" parent="1">
          <mxGeometry x="20" y="50" width="170" height="30" as="geometry" />
        </mxCell>
        <mxCell id="M4bq6foVdT7VnZldmVRY-6" value="&lt;b&gt;Logement&lt;/b&gt;" style="text;html=1;align=left;verticalAlign=middle;whiteSpace=wrap;rounded=0;" vertex="1" parent="1">
          <mxGeometry x="20" y="350" width="170" height="30" as="geometry" />
        </mxCell>
        <mxCell id="M4bq6foVdT7VnZldmVRY-7" value="&lt;b&gt;Services&lt;/b&gt;" style="text;html=1;align=left;verticalAlign=middle;whiteSpace=wrap;rounded=0;" vertex="1" parent="1">
          <mxGeometry x="20" y="540" width="170" height="30" as="geometry" />
        </mxCell>
        <mxCell id="M4bq6foVdT7VnZldmVRY-8" value="Accueillir les Artistes à leur arrivée" style="ellipse;html=1;whiteSpace=wrap;" vertex="1" parent="1">
          <mxGeometry x="294" y="150" width="240" height="60" as="geometry" />
        </mxCell>
      </root>
    </mxGraphModel>
  </diagram>
</mxfile>
